<svg width="512" height="64" xmlns="http://www.w3.org/2000/svg">
  <defs>
    <filter id="shadow" x="-20%" y="-20%" width="140%" height="140%"><feDropShadow dx="1" dy="2" stdDeviation="1.5" flood-opacity="0.5"/></filter>
    <radialGradient id="helmetGrad" cx="40%" cy="40%" r="60%"><stop offset="0%" stop-color="#4a7a3d"/><stop offset="100%" stop-color="#1b3d17"/></radialGradient>
    <radialGradient id="shoulderGrad" cx="50%" cy="50%" r="50%"><stop offset="0%" stop-color="#8b6e4d"/><stop offset="100%" stop-color="#5a4632"/></radialGradient>
  </defs>
  <!-- 8 horizontal frames -->
  <g transform="translate(0,0)" filter="url(#shadow)"><ellipse cx="32" cy="32" rx="16" ry="24" fill="url(#shoulderGrad)"/><circle cx="32" cy="32" r="14" fill="url(#helmetGrad)"/><rect x="42" y="28" width="20" height="6" fill="#1a1a1a"/></g>
  <g transform="translate(64,0)" filter="url(#shadow)"><ellipse cx="32" cy="31" rx="17" ry="23" fill="url(#shoulderGrad)"/><circle cx="32" cy="31" r="14" fill="url(#helmetGrad)"/></g>
  <g transform="translate(128,0)" filter="url(#shadow)"><ellipse cx="32" cy="30" rx="18" ry="22" fill="url(#shoulderGrad)"/><circle cx="32" cy="30" r="14" fill="url(#helmetGrad)"/></g>
  <g transform="translate(192,0)" filter="url(#shadow)"><ellipse cx="32" cy="31" rx="17" ry="23" fill="url(#shoulderGrad)"/><circle cx="32" cy="31" r="14" fill="url(#helmetGrad)"/></g>
  <g transform="translate(256,0)" filter="url(#shadow)"><ellipse cx="32" cy="32" rx="16" ry="24" fill="url(#shoulderGrad)"/><circle cx="32" cy="32" r="14" fill="url(#helmetGrad)"/></g>
  <g transform="translate(320,0)" filter="url(#shadow)"><ellipse cx="32" cy="33" rx="15" ry="25" fill="url(#shoulderGrad)"/><circle cx="32" cy="33" r="14" fill="url(#helmetGrad)"/></g>
  <g transform="translate(384,0)" filter="url(#shadow)"><ellipse cx="32" cy="34" rx="14" ry="26" fill="url(#shoulderGrad)"/><circle cx="32" cy="34" r="14" fill="url(#helmetGrad)"/></g>
  <g transform="translate(448,0)" filter="url(#shadow)"><ellipse cx="32" cy="33" rx="15" ry="25" fill="url(#shoulderGrad)"/><circle cx="32" cy="33" r="14" fill="url(#helmetGrad)"/></g>
</svg>
