<svg width="256" height="64" xmlns="http://www.w3.org/2000/svg">
  <defs>
    <filter id="shadow" x="-20%" y="-20%" width="140%" height="140%">
      <feDropShadow dx="1" dy="2" stdDeviation="1.5" flood-opacity="0.5"/>
    </filter>
    <radialGradient id="helmetGrad" cx="40%" cy="40%" r="60%">
      <stop offset="0%" stop-color="#4a7a3d"/>
      <stop offset="100%" stop-color="#1b3d17"/>
    </radialGradient>
    <radialGradient id="shoulderGrad" cx="50%" cy="50%" r="50%">
      <stop offset="0%" stop-color="#8b6e4d"/>
      <stop offset="100%" stop-color="#5a4632"/>
    </radialGradient>
  </defs>

  <!-- Frame 1 -->
  <g transform="translate(0,0)" filter="url(#shadow)">
    <!-- Base Body/Vest -->
    <ellipse cx="32" cy="32" rx="16" ry="24" fill="url(#shoulderGrad)" />
    <!-- Helmet -->
    <circle cx="32" cy="32" r="14" fill="url(#helmetGrad)" stroke="#000" stroke-width="1"/>
    <!-- AK-47 -->
    <rect x="42" y="28" width="20" height="6" fill="#1a1a1a" rx="1"/>
    <rect x="40" y="26" width="8" height="10" fill="#4d3221" rx="2"/>
    <rect x="52" y="27" width="10" height="2" fill="#333" />
  </g>

  <!-- Frame 2: Pulse -->
  <g transform="translate(64,0)" filter="url(#shadow)">
    <ellipse cx="32" cy="32" rx="17" ry="25" fill="url(#shoulderGrad)" />
    <circle cx="32" cy="32" r="15" fill="url(#helmetGrad)" stroke="#000" stroke-width="1"/>
    <rect x="43" y="28" width="20" height="6" fill="#1a1a1a" rx="1"/>
    <rect x="41" y="26" width="8" height="10" fill="#4d3221" rx="2"/>
  </g>

  <!-- Frame 3 -->
  <g transform="translate(128,0)" filter="url(#shadow)">
    <ellipse cx="32" cy="32" rx="16" ry="24" fill="url(#shoulderGrad)" />
    <circle cx="32" cy="32" r="14" fill="url(#helmetGrad)" stroke="#000" stroke-width="1"/>
    <rect x="42" y="28" width="20" height="6" fill="#1a1a1a" rx="1"/>
  </g>

  <!-- Frame 4 -->
  <g transform="translate(192,0)" filter="url(#shadow)">
    <ellipse cx="32" cy="32" rx="15" ry="23" fill="url(#shoulderGrad)" />
    <circle cx="32" cy="32" r="13" fill="url(#helmetGrad)" stroke="#000" stroke-width="1"/>
    <rect x="41" y="28" width="20" height="6" fill="#1a1a1a" rx="1"/>
  </g>
</svg>
