<svg width="512" height="64" xmlns="http://www.w3.org/2000/svg">
  <defs>
    <filter id="shadow" x="-20%" y="-20%" width="140%" height="140%"><feDropShadow dx="1" dy="2" stdDeviation="1.5" flood-opacity="0.4"/></filter>
    <radialGradient id="helmetGrad" cx="40%" cy="40%" r="60%"><stop offset="0%" stop-color="#3498db"/><stop offset="100%" stop-color="#21618c"/></radialGradient>
    <radialGradient id="vestGrad" cx="50%" cy="50%" r="50%"><stop offset="0%" stop-color="#34495e"/><stop offset="100%" stop-color="#2c3e50"/></radialGradient>
  </defs>
  <g transform="translate(0,0)" filter="url(#shadow)"><ellipse cx="32" cy="32" rx="16" ry="22" fill="url(#vestGrad)"/><circle cx="32" cy="31" r="14" fill="url(#helmetGrad)"/><rect x="42" y="28" width="16" height="7" fill="#222" rx="1"/></g>
  <g transform="translate(64,0)" filter="url(#shadow)"><ellipse cx="32" cy="32" rx="17" ry="23" fill="url(#vestGrad)"/><circle cx="32" cy="31" r="14" fill="url(#helmetGrad)"/><rect x="38" y="22" width="16" height="7" fill="#222" rx="1" transform="rotate(-15, 38, 22)"/><rect x="25" y="22" width="6" height="8" fill="#555" rx="1"/></g>
  <g transform="translate(128,0)" filter="url(#shadow)"><ellipse cx="32" cy="32" rx="18" ry="22" fill="url(#vestGrad)"/><circle cx="32" cy="31" r="14" fill="url(#helmetGrad)"/><rect x="34" y="18" width="16" height="7" fill="#222" rx="1" transform="rotate(-30, 34, 18)"/><rect x="22" y="20" width="7" height="9" fill="#555" rx="1"/></g>
  <g transform="translate(192,0)" filter="url(#shadow)"><ellipse cx="32" cy="32" rx="17" ry="23" fill="url(#vestGrad)"/><circle cx="32" cy="31" r="14" fill="url(#helmetGrad)"/><rect x="32" y="20" width="16" height="7" fill="#222" rx="1" transform="rotate(-20, 32, 20)"/><rect x="38" y="42" width="4" height="6" fill="#666" /></g>
  <g transform="translate(256,0)" filter="url(#shadow)"><ellipse cx="32" cy="32" rx="16" ry="22" fill="url(#vestGrad)"/><circle cx="32" cy="31" r="14" fill="url(#helmetGrad)"/><rect x="40" y="26" width="16" height="7" fill="#222" rx="1" transform="rotate(-5, 40, 26)"/></g>
  <g transform="translate(320,0)" filter="url(#shadow)"><ellipse cx="32" cy="32" rx="16" ry="22" fill="url(#vestGrad)"/><circle cx="32" cy="31" r="14" fill="url(#helmetGrad)"/><rect x="42" y="28" width="16" height="7" fill="#222" rx="1"/></g>
  <g transform="translate(384,0)" filter="url(#shadow)"><ellipse cx="32" cy="32" rx="16" ry="22" fill="url(#vestGrad)"/><circle cx="32" cy="31" r="14" fill="url(#helmetGrad)"/></g>
  <g transform="translate(448,0)" filter="url(#shadow)"><ellipse cx="32" cy="32" rx="16" ry="22" fill="url(#vestGrad)"/><circle cx="32" cy="31" r="14" fill="url(#helmetGrad)"/></g>
</svg>
