<svg width="512" height="64" xmlns="http://www.w3.org/2000/svg">
  <defs>
    <filter id="shadow" x="-20%" y="-20%" width="140%" height="140%"><feDropShadow dx="1" dy="2" stdDeviation="1.5" flood-opacity="0.4"/></filter>
    <radialGradient id="helmetGrad" cx="40%" cy="40%" r="60%"><stop offset="0%" stop-color="#3498db"/><stop offset="100%" stop-color="#21618c"/></radialGradient>
    <radialGradient id="vestGrad" cx="50%" cy="50%" r="50%"><stop offset="0%" stop-color="#34495e"/><stop offset="100%" stop-color="#2c3e50"/></radialGradient>
  </defs>
  <g transform="translate(0,0)" filter="url(#shadow)"><ellipse cx="32" cy="34" rx="14" ry="20" fill="url(#vestGrad)"/><circle cx="32" cy="33" r="12" fill="url(#helmetGrad)" stroke="#1a1a1a"/><rect x="38" y="31" width="16" height="6" fill="#222" rx="1"/></g>
  <g transform="translate(64,0)" filter="url(#shadow)"><ellipse cx="32" cy="33.5" rx="15" ry="19.5" fill="url(#vestGrad)"/><circle cx="32" cy="32.5" r="12" fill="url(#helmetGrad)"/><rect x="39" y="31" width="16" height="6" fill="#222" rx="1"/></g>
  <g transform="translate(128,0)" filter="url(#shadow)"><ellipse cx="32" cy="33" rx="16" ry="19" fill="url(#vestGrad)"/><circle cx="32" cy="32" r="12" fill="url(#helmetGrad)"/><rect x="40" y="31" width="16" height="6" fill="#222" rx="1"/></g>
  <g transform="translate(192,0)" filter="url(#shadow)"><ellipse cx="32" cy="33.5" rx="15" ry="19.5" fill="url(#vestGrad)"/><circle cx="32" cy="32.5" r="12" fill="url(#helmetGrad)"/><rect x="39" y="31" width="16" height="6" fill="#222" rx="1"/></g>
  <g transform="translate(256,0)" filter="url(#shadow)"><ellipse cx="32" cy="34" rx="14" ry="20" fill="url(#vestGrad)"/><circle cx="32" cy="33" r="12" fill="url(#helmetGrad)"/><rect x="38" y="31" width="16" height="6" fill="#222" rx="1"/></g>
  <g transform="translate(320,0)" filter="url(#shadow)"><ellipse cx="32" cy="34.5" rx="13" ry="20.5" fill="url(#vestGrad)"/><circle cx="32" cy="33.5" r="12" fill="url(#helmetGrad)"/></g>
  <g transform="translate(384,0)" filter="url(#shadow)"><ellipse cx="32" cy="35" rx="12" ry="21" fill="url(#vestGrad)"/><circle cx="32" cy="34" r="12" fill="url(#helmetGrad)"/></g>
  <g transform="translate(448,0)" filter="url(#shadow)"><ellipse cx="32" cy="34.5" rx="13" ry="20.5" fill="url(#vestGrad)"/><circle cx="32" cy="33.5" r="12" fill="url(#helmetGrad)"/></g>
</svg>
