<svg width="256" height="64" xmlns="http://www.w3.org/2000/svg">
  <defs>
    <filter id="shadow" x="-20%" y="-20%" width="140%" height="140%"><feDropShadow dx="1" dy="2" stdDeviation="1.5" flood-opacity="0.4"/></filter>
    <radialGradient id="helmetGrad" cx="40%" cy="40%" r="60%"><stop offset="0%" stop-color="#2ecc71"/><stop offset="100%" stop-color="#1e8449"/></radialGradient>
    <radialGradient id="vestGrad" cx="50%" cy="50%" r="50%"><stop offset="0%" stop-color="#1b4f72"/><stop offset="100%" stop-color="#154360"/></radialGradient>
  </defs>
  <g transform="translate(0,0)" filter="url(#shadow)">
    <ellipse cx="32" cy="32" rx="20" ry="24" fill="url(#vestGrad)" /> <!-- Bulkier -->
    <circle cx="32" cy="31" r="16" fill="url(#helmetGrad)" stroke="#1a1a1a" stroke-width="2"/>
    <rect x="28" y="22" width="8" height="3" fill="#333" rx="1"/>
    <rect x="42" y="24" width="24" height="12" fill="#333" rx="2"/> <!-- Minigun base -->
  </g>
  <g transform="translate(64,0)" filter="url(#shadow)">
    <ellipse cx="32" cy="32" rx="21" ry="25" fill="url(#vestGrad)" />
    <circle cx="32" cy="31.5" r="16.5" fill="url(#helmetGrad)" stroke="#1a1a1a" stroke-width="2"/>
    <rect x="43" y="24" width="24" height="12" fill="#333" rx="2"/>
  </g>
  <g transform="translate(128,0)" filter="url(#shadow)">
    <ellipse cx="32" cy="32" rx="20" ry="24" fill="url(#vestGrad)" />
    <circle cx="32" cy="31" r="16" fill="url(#helmetGrad)" stroke="#1a1a1a" stroke-width="2"/>
    <rect x="42" y="24" width="24" height="12" fill="#333" rx="2"/>
  </g>
  <g transform="translate(192,0)" filter="url(#shadow)">
    <ellipse cx="32" cy="32" rx="19.5" ry="23.5" fill="url(#vestGrad)" />
    <circle cx="32" cy="30.5" r="15.5" fill="url(#helmetGrad)" stroke="#1a1a1a" stroke-width="2"/>
    <rect x="41" y="24" width="24" height="12" fill="#333" rx="2"/>
  </g>
</svg>
