<svg width="512" height="64" xmlns="http://www.w3.org/2000/svg">
  <defs>
    <filter id="shadow" x="-20%" y="-20%" width="140%" height="140%"><feDropShadow dx="2" dy="3" stdDeviation="2" flood-opacity="0.6"/></filter>
    <linearGradient id="armorGrad" x1="0%" y1="0%" x2="100%" y2="100%"><stop offset="0%" stop-color="#bdc3c7"/><stop offset="100%" stop-color="#7f8c8d"/></linearGradient>
  </defs>
  <g transform="translate(0,0)" filter="url(#shadow)"><rect x="12" y="10" width="36" height="44" rx="8" fill="url(#armorGrad)"/><rect x="18" y="14" width="24" height="30" rx="4" fill="#616a6b"/></g>
  <g transform="translate(64,0)" filter="url(#shadow)"><rect x="11" y="9" width="38" height="46" rx="8" fill="url(#armorGrad)"/></g>
  <g transform="translate(128,0)" filter="url(#shadow)"><rect x="10" y="8" width="40" height="48" rx="8" fill="url(#armorGrad)"/></g>
  <g transform="translate(192,0)" filter="url(#shadow)"><rect x="11" y="9" width="38" height="46" rx="8" fill="url(#armorGrad)"/></g>
  <g transform="translate(256,0)" filter="url(#shadow)"><rect x="12" y="10" width="36" height="44" rx="8" fill="url(#armorGrad)"/></g>
  <g transform="translate(320,0)" filter="url(#shadow)"><rect x="13" y="11" width="34" height="42" rx="8" fill="url(#armorGrad)"/></g>
  <g transform="translate(384,0)" filter="url(#shadow)"><rect x="14" y="12" width="32" height="40" rx="8" fill="url(#armorGrad)"/></g>
  <g transform="translate(448,0)" filter="url(#shadow)"><rect x="13" y="11" width="34" height="42" rx="8" fill="url(#armorGrad)"/></g>
</svg>
