<svg width="512" height="64" xmlns="http://www.w3.org/2000/svg">
  <!-- Frame 1 -->
  <g transform="translate(32,32) scale(0.85)">
    <circle r="14" fill="#d35400" stroke="#2c3e50" stroke-width="2"/>
    <rect x="2" y="-10" width="14" height="5" rx="2" fill="#34495e"/>
    <rect x="2" y="5" width="14" height="5" rx="2" fill="#34495e"/>
  </g>
  <!-- Frame 2 -->
  <g transform="translate(96,32) scale(0.85)">
    <circle r="14" fill="#d35400" stroke="#2c3e50" stroke-width="2"/>
    <rect x="4" y="-8" width="14" height="5" rx="2" fill="#34495e"/>
    <rect x="0" y="3" width="14" height="5" rx="2" fill="#34495e"/>
  </g>
  <!-- Frame 3 -->
  <g transform="translate(160,32) scale(0.85)">
    <circle r="14" fill="#d35400" stroke="#2c3e50" stroke-width="2"/>
    <rect x="6" y="-6" width="14" height="5" rx="2" fill="#34495e"/>
    <rect x="-2" y="1" width="14" height="5" rx="2" fill="#34495e"/>
  </g>
  <!-- Frame 4 -->
  <g transform="translate(224,32) scale(0.85)">
    <circle r="14" fill="#d35400" stroke="#2c3e50" stroke-width="2"/>
    <rect x="4" y="-8" width="14" height="5" rx="2" fill="#34495e"/>
    <rect x="0" y="3" width="14" height="5" rx="2" fill="#34495e"/>
  </g>
  <!-- Frame 5 -->
  <g transform="translate(288,32) scale(0.85)">
    <circle r="14" fill="#d35400" stroke="#2c3e50" stroke-width="2"/>
    <rect x="2" y="-10" width="14" height="5" rx="2" fill="#34495e"/>
    <rect x="2" y="5" width="14" height="5" rx="2" fill="#34495e"/>
  </g>
  <!-- Frame 6 -->
  <g transform="translate(352,32) scale(0.85)">
    <circle r="14" fill="#d35400" stroke="#2c3e50" stroke-width="2"/>
    <rect x="0" y="-12" width="14" height="5" rx="2" fill="#34495e"/>
    <rect x="4" y="7" width="14" height="5" rx="2" fill="#34495e"/>
  </g>
  <!-- Frame 7 -->
  <g transform="translate(416,32) scale(0.85)">
    <circle r="14" fill="#d35400" stroke="#2c3e50" stroke-width="2"/>
    <rect x="-2" y="-14" width="14" height="5" rx="2" fill="#34495e"/>
    <rect x="6" y="9" width="14" height="5" rx="2" fill="#34495e"/>
  </g>
  <!-- Frame 8 -->
  <g transform="translate(480,32) scale(0.85)">
    <circle r="14" fill="#d35400" stroke="#2c3e50" stroke-width="2"/>
    <rect x="0" y="-12" width="14" height="5" rx="2" fill="#34495e"/>
    <rect x="4" y="7" width="14" height="5" rx="2" fill="#34495e"/>
  </g>
</svg>
