<svg width="512" height="64" xmlns="http://www.w3.org/2000/svg">
  <defs>
    <filter id="shadow" x="-20%" y="-20%" width="140%" height="140%"><feDropShadow dx="1" dy="2" stdDeviation="1.5" flood-opacity="0.4"/></filter>
    <radialGradient id="helmetGrad" cx="40%" cy="40%" r="60%"><stop offset="0%" stop-color="#9b59b6"/><stop offset="100%" stop-color="#702963"/></radialGradient>
    <radialGradient id="vestGrad" cx="50%" cy="50%" r="50%"><stop offset="0%" stop-color="#2c3e50"/><stop offset="100%" stop-color="#1c2833"/></radialGradient>
  </defs>
  <g transform="translate(0,0)" filter="url(#shadow)"><ellipse cx="32" cy="34" rx="12" ry="18" fill="url(#vestGrad)"/><circle cx="32" cy="33" r="10" fill="url(#helmetGrad)"/><rect x="38" y="32" width="22" height="4" fill="#ccc" rx="1"/></g>
  <g transform="translate(64,0)" filter="url(#shadow)"><ellipse cx="32" cy="33.5" rx="13" ry="17.5" fill="url(#vestGrad)"/><circle cx="32" cy="32.5" r="10" fill="url(#helmetGrad)"/></g>
  <g transform="translate(128,0)" filter="url(#shadow)"><ellipse cx="32" cy="33" rx="14" ry="17" fill="url(#vestGrad)"/><circle cx="32" cy="32" r="10" fill="url(#helmetGrad)"/></g>
  <g transform="translate(192,0)" filter="url(#shadow)"><ellipse cx="32" cy="33.5" rx="13" ry="17.5" fill="url(#vestGrad)"/><circle cx="32" cy="32.5" r="10" fill="url(#helmetGrad)"/></g>
  <g transform="translate(256,0)" filter="url(#shadow)"><ellipse cx="32" cy="34" rx="12" ry="18" fill="url(#vestGrad)"/><circle cx="32" cy="33" r="10" fill="url(#helmetGrad)"/></g>
  <g transform="translate(320,0)" filter="url(#shadow)"><ellipse cx="32" cy="34.5" rx="11" ry="18.5" fill="url(#vestGrad)"/><circle cx="32" cy="33.5" r="10" fill="url(#helmetGrad)"/></g>
  <g transform="translate(384,0)" filter="url(#shadow)"><ellipse cx="32" cy="35" rx="10" ry="19" fill="url(#vestGrad)"/><circle cx="32" cy="34" r="10" fill="url(#helmetGrad)"/></g>
  <g transform="translate(448,0)" filter="url(#shadow)"><ellipse cx="32" cy="34.5" rx="11" ry="18.5" fill="url(#vestGrad)"/><circle cx="32" cy="33.5" r="10" fill="url(#helmetGrad)"/></g>
</svg>
