<svg width="512" height="64" xmlns="http://www.w3.org/2000/svg">
  <defs>
    <filter id="shadow" x="-20%" y="-20%" width="140%" height="140%"><feDropShadow dx="1" dy="2" stdDeviation="1.5" flood-opacity="0.4"/></filter>
    <radialGradient id="helmetGrad" cx="40%" cy="40%" r="60%"><stop offset="0%" stop-color="#9b59b6"/><stop offset="100%" stop-color="#702963"/></radialGradient>
    <radialGradient id="vestGrad" cx="50%" cy="50%" r="50%"><stop offset="0%" stop-color="#2c3e50"/><stop offset="100%" stop-color="#1c2833"/></radialGradient>
  </defs>
  <g transform="translate(0,0)" filter="url(#shadow)"><ellipse cx="32" cy="32" rx="15" ry="21" fill="url(#vestGrad)"/><circle cx="32" cy="31" r="12" fill="url(#helmetGrad)"/><rect x="42" y="28" width="22" height="6" fill="#ccc" rx="1"/></g>
  <g transform="translate(64,0)" filter="url(#shadow)"><ellipse cx="33" cy="31" rx="16" ry="20" fill="url(#vestGrad)" transform="rotate(7, 33, 31)"/><circle cx="33" cy="30" r="12" fill="url(#helmetGrad)"/><rect x="43" y="27" width="22" height="6" fill="#ccc" rx="1" transform="rotate(7, 43, 27)"/></g>
  <g transform="translate(128,0)" filter="url(#shadow)"><ellipse cx="32" cy="30" rx="14" ry="22" fill="url(#vestGrad)"/><circle cx="32" cy="29" r="12" fill="url(#helmetGrad)"/><rect x="42" y="26" width="22" height="6" fill="#ccc" rx="1"/></g>
  <g transform="translate(192,0)" filter="url(#shadow)"><ellipse cx="31" cy="31" rx="16" ry="20" fill="url(#vestGrad)" transform="rotate(-7, 31, 31)"/><circle cx="31" cy="30" r="12" fill="url(#helmetGrad)"/><rect x="41" y="27" width="22" height="6" fill="#ccc" rx="1" transform="rotate(-7, 41, 27)"/></g>
  <g transform="translate(256,0)" filter="url(#shadow)"><ellipse cx="32" cy="32" rx="15" ry="21" fill="url(#vestGrad)"/><circle cx="32" cy="31" r="12" fill="url(#helmetGrad)"/></g>
  <g transform="translate(320,0)" filter="url(#shadow)"><ellipse cx="33" cy="33" rx="16" ry="20" fill="url(#vestGrad)"/><circle cx="33" cy="32" r="12" fill="url(#helmetGrad)"/></g>
  <g transform="translate(384,0)" filter="url(#shadow)"><ellipse cx="32" cy="34" rx="14" ry="22" fill="url(#vestGrad)"/><circle cx="32" cy="33" r="12" fill="url(#helmetGrad)"/></g>
  <g transform="translate(448,0)" filter="url(#shadow)"><ellipse cx="31" cy="33" rx="16" ry="20" fill="url(#vestGrad)"/><circle cx="31" cy="32" r="12" fill="url(#helmetGrad)"/></g>
</svg>
